<svg width="400" height="400" version="1.1" xmlns="http://www.w3.org/2000/svg" desc="Created with ImageTracer.java version 1.1.2" ><path desc="l 0 p 0" fill="rgb(54,231,25)" stroke="rgb(54,231,25)" stroke-width="1" opacity="1.0" d="M 0.5 0.0 L 400.0 0.5 L 399.5 400.0 L 0.0 399.5 L 0.5 0.0 Z" /><path desc="l 3 p 0" fill="rgb(102,65,120)" stroke="rgb(102,65,120)" stroke-width="1" opacity="1.0" d="M 213.5 35.0 L 325.0 35.5 L 324.5 147.0 L 270.0 146.5 L 269.5 87.0 L 213.0 86.5 L 213.5 35.0 Z" /><path desc="l 11 p 0" fill="rgb(201,206,62)" stroke="rgb(201,206,62)" stroke-width="1" opacity="1.0" d="M 176.5 53.0 L 200.0 53.5 L 213.0 55.5 L 212.5 87.0 L 100.0 86.5 Q 112.5 74.5 129.5 67.0 Q 143.0 58.5 162.5 56.0 L 176.5 53.0 Z" /><path desc="l 4 p 0" fill="rgb(91,161,239)" stroke="rgb(91,161,239)" stroke-width="1" opacity="1.0" d="M 81.5 87.0 L 270.0 87.5 L 269.5 276.0 L 81.0 275.5 L 81.5 87.0 Z" /><path desc="l 11 p 1" fill="rgb(201,206,62)" stroke="rgb(201,206,62)" stroke-width="1" opacity="1.0" d="M 80.5 109.0 L 81.0 258.5 L 80.0 258.5 Q 70.4 245.6 65.0 228.5 L 61.5 218.0 L 58.5 204.0 L 57.5 196.0 L 57.0 172.5 L 60.0 155.5 Q 66.1 128.1 80.5 109.0 Z" /><path desc="l 11 p 2" fill="rgb(201,206,62)" stroke="rgb(201,206,62)" stroke-width="1" opacity="1.0" d="M 270.5 147.0 L 314.0 147.5 Q 317.9 158.1 318.5 172.0 L 319.0 195.5 L 314.0 221.5 L 328.0 222.5 L 327.5 341.0 L 209.0 340.5 L 208.5 313.0 L 200.0 314.5 L 176.5 315.0 L 163.0 312.5 Q 143.5 309.5 129.5 301.0 Q 109.3 291.7 95.0 276.5 L 270.0 275.5 L 270.5 147.0 Z" /></svg>